<svg enable-background="new 0 0 256 256" height="512" viewBox="0 0 256 256" width="512" xmlns="http://www.w3.org/2000/svg"><g id="Layer_13"><g><g><path d="m136.458 31.398.101-.279c1.711-6.581 5.189-12.62 7.825-16.55 1.553-2.315-.182-5.375-2.969-5.332-2.816.044-5.594.51-8.212 1.21-9.879 2.641-18.28 9.117-23.901 17.659-5.357 8.14-12.012 20.81-14.478 36.227-1.311 8.196 2.441 16.379 9.537 20.684l3.481 2.112 4.982-3.948c4.247-3.366 6.911-8.297 7.578-13.676 1.768-14.25 8.56-25.581 12.193-30.743 1.604-2.277 2.917-4.744 3.863-7.364z" fill="#70d6f9"/></g><g><path d="m63.53 82.233 7.695 3.472 4.437-4.293c2.73-2.642 3.979-6.457 3.376-10.208-.817-5.083-.886-9.433-.791-12.216.083-2.411-.146-4.817-.705-7.164l-.06-.252c-1.897-5.618-2.247-11.685-2.203-15.812.026-2.431-2.702-3.833-4.714-2.47-2.033 1.378-3.836 3.046-5.411 4.807-5.943 6.648-8.975 15.387-8.992 24.304-.006 3.086.149 6.69.616 10.623.479 4.039 3.045 7.537 6.752 9.209z" fill="#fc657e"/></g><g><path d="m221.615 116.556.279-.101c6.581-1.711 12.62-5.189 16.55-7.825 2.315-1.553 5.375.182 5.332 2.969-.044 2.816-.51 5.594-1.21 8.212-2.641 9.879-9.117 18.28-17.659 23.901-8.14 5.357-20.81 12.012-36.227 14.478-8.196 1.311-16.379-2.441-20.684-9.537l-2.112-3.481 3.948-4.982c3.366-4.247 8.297-6.911 13.676-7.578 14.25-1.768 25.581-8.56 30.743-12.193 2.277-1.604 4.745-2.918 7.364-3.863z" fill="#f5c84c"/></g><g><path d="m170.78 189.483-3.472-7.695 4.293-4.437c2.642-2.73 6.457-3.979 10.208-3.376 5.083.817 9.433.886 12.216.791 2.411-.083 4.817.146 7.164.705l.252.06c5.618 1.897 11.685 2.247 15.812 2.203 2.431-.026 3.833 2.702 2.47 4.714-1.378 2.033-3.046 3.836-4.807 5.411-6.648 5.943-15.387 8.975-24.304 8.992-3.086.006-6.69-.149-10.623-.616-4.039-.478-7.536-3.045-9.209-6.752z" fill="#87d147"/></g><g><path d="m104.918 35.422c-1.964 3.607-3.908 7.703-5.609 12.214l9.66 12.88c1.221-4.899 2.883-9.402 4.709-13.413z" fill="#9be5f9"/></g><g><path d="m107.126 71.875 13.782-5.615c.982-5.42 2.637-10.343 4.48-14.585l-15.776 6.427c-1.225 4.286-2.123 8.899-2.486 13.773z" fill="#9be5f9"/></g><g><path d="m217.592 148.095c-3.607 1.964-7.703 3.908-12.214 5.609l-12.88-9.66c4.899-1.221 9.402-2.883 13.413-4.71z" fill="#fcdd86"/></g><g><path d="m181.139 145.888 5.615-13.782c5.42-.982 10.343-2.637 14.585-4.48l-6.427 15.776c-4.287 1.225-8.9 2.122-13.773 2.486z" fill="#fcdd86"/></g><g><path d="m112.332 208.726c1.123-7.336 5.254-13.775 11.477-17.819 1.805-1.173 3.502-2.541 5.067-4.105 12.357-12.357 14.255-34.806 3.775-52.032l-27.181 27.18c-.631-3.462-2.277-6.775-4.954-9.452s-5.99-4.322-9.452-4.954l27.371-27.371c-17.351-11.195-40.454-9.474-53.058 3.13-1.688 1.688-3.145 3.53-4.376 5.497-3.891 6.213-10.072 10.765-17.302 11.977-7.647 1.281-14.612 4.614-20.097 10.099-17.073 17.073-15.003 50.166 6.684 71.853s54.78 23.757 71.853 6.684c5.625-5.626 8.987-12.809 10.193-20.687z" fill="#87d147"/></g><g><path d="m66.027 211.455-24.469-24.469c-1.199-1.199-1.199-3.143 0-4.342l4.372-4.372c1.199-1.199 3.143-1.199 4.342 0l24.469 24.469c1.199 1.199 1.199 3.143 0 4.342l-4.372 4.372c-1.199 1.2-3.143 1.2-4.342 0z" fill="#6cadef"/></g><g><path d="m66.436 194.435h50.648v-44.1l-11.614 11.615c-.631-3.462-2.277-6.775-4.954-9.452s-5.99-4.322-9.452-4.954l11.614-11.614h-44.1v50.648z" fill="#f5c84c"/></g><g><circle cx="87.831" cy="165.182" fill="#3a70bf" r="17.939"/></g><g><path d="m100.516 152.497c2.677 2.677 4.322 5.99 4.954 9.452l89.512-89.512-14.406-14.406-89.512 89.512c3.462.632 6.775 2.278 9.452 4.954z" fill="#6cadef"/></g><g><path d="m227.497 46.468-20.952-20.952c-2.654-2.654-7.028-2.405-9.364.533l-18.028 22.68c-1.988 2.501-1.783 6.096.476 8.355l16.299 16.299c2.259 2.259 5.854 2.464 8.355.476l22.68-18.028c2.939-2.334 3.188-6.708.534-9.363z" fill="#dae6f1"/></g><g><path d="m255.925 88.063c-3.1-.6-5.6-3-6.2-6.1 0-.1-.3-.1-.3 0-.6 3.1-3.1 5.5-6.2 6.1-.1 0-.1.2 0 .3 3.1.6 5.6 3 6.2 6.1 0 .1.3.1.3 0 .6-3.1 3.1-5.5 6.2-6.1.1-.1.1-.3 0-.3z" fill="#fc657e"/></g><g><path d="m124.9 243.763h2.3v2.3c0 1.8 1.4 3.2 3.2 3.2 1.7 0 3.2-1.4 3.2-3.1v-.1-2.3h2.3c1.8 0 3.2-1.4 3.2-3.2 0-1.7-1.4-3.2-3.1-3.2h-.1-2.3v-2.3c0-1.8-1.4-3.2-3.2-3.2-1.7 0-3.2 1.4-3.2 3.1v.1 2.3h-2.3c-1.8 0-3.2 1.4-3.2 3.2-.1 1.7 1.3 3.2 3.2 3.2-.1 0-.1 0 0 0z" fill="#70d6f9"/></g><g><circle cx="161.3" cy="222.763" fill="#f5c84c" r="3.4"/></g><g><circle cx="3.4" cy="106.315" fill="#87d147" r="3.4"/></g><g><path d="m19.7 82.115c4.5-.8 8-4.3 8.9-8.7 0-.2.4-.2.4 0 .9 4.4 4.4 7.9 8.9 8.7.2 0 .2.3 0 .4-4.5.8-8 4.3-8.9 8.7 0 .2-.4.2-.4 0-.9-4.4-4.4-7.9-8.9-8.7-.2-.1-.2-.4 0-.4z" fill="#f5c84c"/></g><g><path d="m184.553 83.494c-.64 0-1.279-.244-1.768-.732l-12.533-12.533c-.977-.976-.977-2.559 0-3.535.977-.977 2.559-.977 3.535 0l12.533 12.533c.977.976.977 2.559 0 3.535-.488.488-1.128.732-1.767.732z"/></g><g><path d="m174.971 93.075c-.64 0-1.279-.244-1.768-.732l-12.532-12.532c-.977-.976-.977-2.559 0-3.535.977-.977 2.559-.977 3.535 0l12.532 12.532c.977.976.977 2.559 0 3.535-.488.488-1.128.732-1.767.732z"/></g><g><path d="m165.389 102.657c-.64 0-1.279-.244-1.768-.732l-12.532-12.533c-.977-.976-.977-2.559 0-3.535.977-.977 2.559-.977 3.535 0l12.532 12.533c.977.976.977 2.559 0 3.535-.488.488-1.128.732-1.767.732z"/></g><g><path d="m155.807 112.239c-.64 0-1.279-.244-1.768-.732l-12.532-12.532c-.977-.976-.977-2.559 0-3.535.977-.977 2.559-.977 3.535 0l12.532 12.532c.977.976.977 2.559 0 3.535-.488.488-1.128.732-1.767.732z"/></g><g><path d="m146.226 121.821c-.64 0-1.279-.244-1.768-.732l-12.533-12.533c-.977-.976-.977-2.559 0-3.535.977-.977 2.559-.977 3.535 0l12.533 12.533c.977.976.977 2.559 0 3.535-.488.488-1.128.732-1.767.732z"/></g><g><path d="m136.644 131.402c-.64 0-1.279-.244-1.768-.732l-12.533-12.532c-.977-.976-.977-2.559 0-3.535.976-.977 2.56-.977 3.535 0l12.533 12.532c.977.976.977 2.559 0 3.535-.488.488-1.128.732-1.767.732z"/></g><g><path d="m127.062 140.984c-.64 0-1.28-.244-1.768-.732l-12.532-12.533c-.977-.976-.977-2.559 0-3.535.976-.977 2.56-.977 3.535 0l12.532 12.533c.977.976.977 2.559 0 3.535-.488.488-1.128.732-1.767.732z"/></g><g><path d="m117.48 150.566c-.64 0-1.28-.244-1.768-.732l-12.533-12.532c-.977-.976-.977-2.559 0-3.535.976-.977 2.56-.977 3.535 0l12.533 12.532c.977.976.977 2.559 0 3.535-.487.488-1.127.732-1.767.732z"/></g><g><path d="m228.3 68.988c-.64 0-1.279-.244-1.768-.732l-5.967-5.967c-.977-.976-.977-2.559 0-3.536.977-.976 2.559-.976 3.535 0l5.967 5.967c.977.976.977 2.559 0 3.536-.488.488-1.128.732-1.767.732z"/></g><g><path d="m192.791 33.479c-.64 0-1.279-.244-1.768-.732l-6.266-6.266c-.977-.976-.977-2.559 0-3.536.977-.976 2.559-.976 3.535 0l6.266 6.266c.977.976.977 2.559 0 3.536-.488.488-1.127.732-1.767.732z"/></g><g><path d="m216.629 77.37c-.64 0-1.279-.244-1.768-.732l-5.587-5.587c-.977-.976-.977-2.559 0-3.536.977-.976 2.559-.976 3.535 0l5.587 5.587c.977.976.977 2.559 0 3.536-.488.487-1.127.732-1.767.732z"/></g><g><path d="m183.889 44.628c-.64 0-1.279-.244-1.768-.732l-5.692-5.692c-.977-.976-.977-2.559 0-3.535.977-.977 2.559-.977 3.535 0l5.692 5.692c.977.976.977 2.559 0 3.535-.488.488-1.128.732-1.767.732z"/></g><g><path d="m109.796 97.677c-1.063 0-2.049-.683-2.385-1.751-12.068-38.405 15.942-69.245 17.141-70.539.938-1.013 2.521-1.073 3.533-.136 1.013.938 1.073 2.519.137 3.532-.274.296-27.225 30.052-16.041 65.644.414 1.317-.318 2.721-1.636 3.135-.249.078-.501.115-.749.115z"/></g><g><path d="m107.842 89.629c-.447 0-.896-.12-1.296-.362l-3.481-2.112c-7.987-4.846-12.19-13.958-10.709-23.217 2.555-15.971 9.49-29.048 14.858-37.206 6.141-9.332 15.142-15.973 25.344-18.7 3.049-.815 6.016-1.251 8.817-1.294 2.269-.012 4.304 1.165 5.371 3.129 1.049 1.932.939 4.268-.286 6.095-2.517 3.753-5.857 9.538-7.481 15.787-.02.074-.042.147-.068.22l-.101.279c-.998 2.765-2.4 5.441-4.169 7.955-3.665 5.207-10.066 15.977-11.757 29.612-.762 6.141-3.783 11.584-8.507 15.328l-4.981 3.948c-.453.356-1.002.538-1.554.538zm33.63-77.893c-.007 0-.013 0-.02 0-2.392.038-4.949.416-7.604 1.125-9.017 2.41-16.993 8.312-22.458 16.619-5.099 7.749-11.683 20.154-14.098 35.248-1.158 7.241 2.125 14.366 8.365 18.152l1.995 1.209 3.619-2.868c3.689-2.923 6.051-7.194 6.65-12.024 1.825-14.714 8.696-26.286 12.63-31.874 1.512-2.149 2.708-4.429 3.555-6.774l.063-.172c1.811-6.883 5.421-13.148 8.139-17.201.249-.372.162-.708.045-.923-.085-.156-.34-.517-.881-.517zm-5.014 19.662h.01z"/></g><g><path d="m75.003 96.982c-.896 0-1.761-.482-2.21-1.329-10.727-20.216-7.275-41.673-7.123-42.577.229-1.361 1.519-2.274 2.881-2.05 1.36.229 2.278 1.518 2.05 2.878-.034.205-3.301 20.73 6.608 39.404.647 1.22.183 2.733-1.037 3.38-.373.201-.774.294-1.169.294z"/></g><g><path d="m71.225 88.205c-.348 0-.698-.072-1.028-.221l-7.695-3.472c-4.483-2.022-7.628-6.311-8.207-11.192-.428-3.601-.641-7.276-.634-10.922.019-9.82 3.438-19.041 9.629-25.965 1.853-2.073 3.829-3.826 5.873-5.211 1.719-1.166 3.92-1.281 5.743-.301 1.794.964 2.896 2.829 2.874 4.867-.042 3.916.284 9.693 2.071 14.985.024.072.045.146.063.22l.06.252c.603 2.533.863 5.167.771 7.829-.09 2.633-.031 6.805.761 11.734.734 4.567-.801 9.204-4.106 12.401l-4.437 4.293c-.475.46-1.102.703-1.738.703zm1.057-52.947c-.093 0-.201.026-.314.103-1.705 1.155-3.37 2.636-4.95 4.404-5.372 6.009-8.34 14.05-8.356 22.643-.006 3.447.195 6.92.599 10.324.374 3.15 2.404 5.917 5.298 7.223l6.148 2.774 3.217-3.113c2.131-2.063 3.121-5.059 2.646-8.015-.855-5.324-.919-9.844-.821-12.698.076-2.215-.139-4.402-.638-6.5l-.034-.141c-1.979-5.925-2.342-12.252-2.297-16.528.001-.076.003-.279-.24-.41-.059-.031-.148-.066-.258-.066z"/></g><g><path d="m176.602 148.614c-6.188 0-12.733-.881-19.515-3.012-1.317-.414-2.05-1.817-1.636-3.135.413-1.318 1.82-2.048 3.134-1.636 35.663 11.207 65.349-15.765 65.645-16.04 1.012-.939 2.596-.876 3.532.136.938 1.013.878 2.595-.136 3.533-1.065.988-22.165 20.154-51.024 20.154z"/></g><g><path d="m185.392 160.952c-7.929 0-15.334-4.08-19.533-11.003l-2.112-3.48c-.542-.894-.471-2.03.179-2.85l3.948-4.982c3.744-4.724 9.188-7.745 15.327-8.506 13.634-1.691 24.405-8.092 29.612-11.757 2.512-1.768 5.188-3.171 7.954-4.169h.002l.279-.101c.071-.026.144-.048.218-.067 6.249-1.625 12.034-4.966 15.786-7.482 1.828-1.227 4.165-1.335 6.096-.286 1.965 1.067 3.163 3.125 3.129 5.37-.044 2.804-.479 5.771-1.295 8.819-2.727 10.202-9.368 19.202-18.7 25.343-8.158 5.368-21.234 12.304-37.206 14.858-1.233.196-2.466.293-3.684.293zm-16.469-15.591 1.211 1.994c3.785 6.24 10.906 9.526 18.152 8.365 15.094-2.414 27.498-8.999 35.247-14.098 8.307-5.466 14.208-13.442 16.618-22.458.709-2.652 1.088-5.211 1.125-7.605.009-.553-.357-.813-.516-.899-.216-.117-.551-.205-.924.045-4.052 2.717-10.317 6.328-17.201 8.139l-.172.062c-2.347.847-4.626 2.043-6.773 3.555-5.589 3.934-17.162 10.805-31.875 12.63-4.83.599-9.1 2.961-12.024 6.65z"/></g><g><path d="m190.405 187.991c-8.314 0-20.902-1.327-33.046-7.77-1.22-.647-1.684-2.161-1.036-3.38.646-1.22 2.159-1.684 3.38-1.037 18.674 9.909 39.198 6.642 39.404 6.608 1.358-.223 2.649.692 2.878 2.053.228 1.361-.688 2.648-2.05 2.878-.36.061-4.001.648-9.53.648z"/></g><g><path d="m190.444 199.352c-3.589 0-7.205-.213-10.75-.633-4.882-.579-9.171-3.724-11.193-8.207l-3.472-7.695c-.421-.934-.229-2.031.482-2.767l4.293-4.437c3.197-3.304 7.83-4.84 12.401-4.106 4.933.792 9.103.851 11.733.76 2.662-.09 5.295.169 7.829.771l.253.061c.074.018.147.039.22.063 5.294 1.788 11.084 2.119 14.985 2.071 2.045-.004 3.903 1.079 4.867 2.874.979 1.822.863 4.023-.302 5.743-1.385 2.043-3.138 4.019-5.211 5.873-6.924 6.19-16.146 9.609-25.965 9.628-.055.001-.113.001-.17.001zm-20.159-17.045 2.774 6.148c1.305 2.894 4.073 4.924 7.224 5.298 3.403.403 6.862.584 10.323.598 8.593-.017 16.634-2.984 22.643-8.356 1.768-1.581 3.249-3.246 4.404-4.95.166-.246.094-.464.036-.572-.132-.244-.337-.244-.41-.24-4.277.045-10.602-.317-16.527-2.297l-.143-.034c-2.099-.5-4.296-.714-6.498-.638-2.854.098-7.37.035-12.698-.821-2.957-.473-5.953.514-8.015 2.646z"/></g><g><path d="m108.417 62.277c-.76 0-1.511-.345-2.002-1l-8.694-11.592c-.829-1.104-.604-2.671.5-3.5 1.105-.829 2.672-.604 3.5.5l8.694 11.592c.829 1.104.604 2.671-.5 3.5-.449.338-.976.5-1.498.5z"/></g><g><path d="m113.1 48.827c-.76 0-1.511-.345-2.002-1l-7.74-10.319c-.829-1.104-.604-2.671.5-3.5 1.105-.829 2.671-.604 3.5.5l7.74 10.319c.829 1.104.604 2.671-.5 3.5-.45.338-.976.5-1.498.5z"/></g><g><path d="m107.396 74.266c-.986 0-1.921-.587-2.316-1.557-.521-1.279.094-2.738 1.372-3.259l13.069-5.324c1.279-.521 2.737.094 3.259 1.372.521 1.279-.094 2.738-1.372 3.259l-13.069 5.324c-.31.125-.629.185-.943.185z"/></g><g><path d="m110.083 60.411c-.986 0-1.921-.587-2.316-1.557-.521-1.279.094-2.738 1.372-3.259l14.871-6.059c1.28-.521 2.737.093 3.259 1.372.521 1.279-.094 2.738-1.372 3.259l-14.871 6.059c-.309.126-.629.185-.943.185z"/></g><g><path d="m204.368 155.448c-.521 0-1.048-.163-1.498-.5l-11.053-8.289c-1.104-.828-1.328-2.396-.5-3.5.829-1.104 2.395-1.329 3.5-.5l11.053 8.289c1.104.828 1.328 2.396.5 3.5-.491.655-1.242 1-2.002 1z"/></g><g><path d="m216.658 149.896c-.521 0-1.048-.163-1.498-.5l-9.938-7.453c-1.104-.829-1.328-2.396-.5-3.5.829-1.104 2.395-1.329 3.5-.5l9.938 7.453c1.104.829 1.328 2.396.5 3.5-.491.655-1.242 1-2.002 1z"/></g><g><path d="m181.41 147.719c-.314 0-.634-.06-.942-.185-1.278-.521-1.893-1.98-1.372-3.259l5.158-12.661c.521-1.279 1.981-1.892 3.259-1.372 1.278.521 1.893 1.98 1.372 3.259l-5.158 12.661c-.396.97-1.331 1.557-2.317 1.557z"/></g><g><path d="m195.153 145.305c-.314 0-.634-.06-.942-.185-1.278-.521-1.893-1.98-1.372-3.259l5.902-14.488c.521-1.279 1.98-1.891 3.259-1.372 1.278.521 1.893 1.98 1.372 3.259l-5.902 14.488c-.396.969-1.33 1.557-2.317 1.557z"/></g><g><path d="m72.443 243.379c-15.197.001-31.48-6.439-43.925-18.884-22.244-22.244-25.305-56.768-6.684-75.389 5.66-5.66 13.077-9.393 21.451-10.796 6.255-1.048 11.94-4.999 15.597-10.837 1.345-2.148 2.936-4.146 4.728-5.938 13.63-13.632 37.64-15.213 55.846-3.678 1.167.739 1.513 2.284.774 3.45s-2.285 1.513-3.45.774c-16.012-10.145-37.813-8.831-49.635 2.99-1.525 1.526-2.879 3.227-4.025 5.056-4.415 7.05-11.343 11.83-19.008 13.115-7.341 1.23-13.822 4.48-18.742 9.4-7.718 7.718-11.534 19.462-10.47 32.221 1.112 13.328 7.204 26.147 17.153 36.097 9.95 9.95 22.77 16.042 36.097 17.153 12.764 1.065 24.503-2.752 32.221-10.469 5.047-5.048 8.329-11.721 9.489-19.297 1.227-8.015 5.814-15.136 12.585-19.537 1.677-1.09 3.245-2.361 4.662-3.777 11.61-11.61 13.184-32.479 3.662-48.541-.704-1.188-.313-2.721.875-3.425 1.189-.705 2.722-.312 3.426.875 10.651 17.966 8.749 41.45-4.427 54.625-1.663 1.663-3.504 3.154-5.473 4.434-5.577 3.625-9.356 9.494-10.368 16.102-1.323 8.636-5.09 16.27-10.896 22.075-8.202 8.205-19.496 12.2-31.463 12.201z"/></g><g><path d="m68.198 214.855c-1.488 0-2.887-.58-3.938-1.632l-24.469-24.469c-2.172-2.172-2.172-5.706 0-7.877l4.372-4.372c2.171-2.171 5.705-2.172 7.877 0l24.469 24.469c2.172 2.172 2.172 5.706 0 7.878l-4.372 4.372c-1.052 1.051-2.45 1.631-3.939 1.631zm-20.097-34.982c-.146 0-.292.056-.403.167l-4.372 4.372c-.222.223-.222.584 0 .807l24.469 24.469c.276.277.531.276.807 0l4.372-4.372c.222-.223.222-.585 0-.808l-24.469-24.468c-.111-.111-.257-.167-.404-.167z"/></g><g><path d="m117.084 196.935h-50.381c-1.381 0-2.5-1.119-2.5-2.5s1.119-2.5 2.5-2.5h47.881v-41.227c0-1.381 1.119-2.5 2.5-2.5s2.5 1.119 2.5 2.5v43.727c0 1.381-1.119 2.5-2.5 2.5z"/></g><g><path d="m58.578 188.667c-1.381 0-2.5-1.119-2.5-2.5v-50.237c0-1.381 1.119-2.5 2.5-2.5h43.893c1.381 0 2.5 1.119 2.5 2.5s-1.119 2.5-2.5 2.5h-41.393v47.737c0 1.381-1.119 2.5-2.5 2.5z"/></g><g><path d="m87.831 185.612c-5.234 0-10.467-1.992-14.452-5.977-3.861-3.86-5.987-8.993-5.987-14.453s2.126-10.592 5.987-14.453c3.86-3.86 8.993-5.986 14.452-5.986s10.592 2.126 14.453 5.987c7.969 7.969 7.969 20.936 0 28.905-3.984 3.984-9.22 5.977-14.453 5.977zm0-35.869c-4.124 0-8.001 1.606-10.917 4.522-2.917 2.916-4.522 6.793-4.522 10.917s1.606 8.001 4.522 10.917c6.02 6.019 15.814 6.02 21.834 0 6.019-6.02 6.019-15.814 0-21.834-2.916-2.916-6.793-4.522-10.917-4.522zm12.685 28.124h.01z"/></g><g><path d="m105.77 164.149c-.64 0-1.28-.244-1.768-.732-.977-.976-.977-2.559 0-3.535l88.815-88.814c.977-.977 2.559-.977 3.535 0 .977.976.977 2.559 0 3.535l-88.815 88.814c-.487.488-1.127.732-1.767.732z"/></g><g><path d="m91.364 149.743c-.64 0-1.28-.244-1.768-.732-.977-.976-.977-2.559 0-3.535l88.669-88.668c.977-.977 2.559-.977 3.535 0 .977.976.977 2.559 0 3.535l-88.669 88.668c-.487.488-1.127.732-1.767.732z"/></g><g><path d="m200.374 77.727c-2.259 0-4.508-.868-6.214-2.574l-16.299-16.3c-3.16-3.159-3.446-8.18-.665-11.678l18.027-22.68c1.556-1.958 3.881-3.162 6.378-3.305 2.482-.141 4.942.79 6.711 2.559l20.952 20.952c1.769 1.768 2.701 4.214 2.559 6.711s-1.347 4.821-3.305 6.377l-22.68 18.028c-1.609 1.28-3.54 1.91-5.464 1.91zm1.736-51.552c-.074 0-.149.002-.225.007-1.092.062-2.067.568-2.748 1.424l-18.027 22.68c-1.198 1.507-1.075 3.67.286 5.031l16.299 16.3c1.361 1.36 3.524 1.485 5.032.286l22.68-18.028c.856-.681 1.362-1.656 1.425-2.748.062-1.091-.33-2.118-1.103-2.892l-20.952-20.952c-.719-.719-1.66-1.108-2.667-1.108z"/></g></g></g></svg>